<svg width="76" height="49" viewBox="0 0 76 49" fill="none" xmlns="http://www.w3.org/2000/svg">
<g clip-path="url(#clip0_10_208)">
<path d="M6.02005 8.53614L-0.490808 9.03335L0.644404 31.9854L-0.192526 15.0446C3.40242 14.7693 6.18391 11.8545 6.01951 8.53379L6.02005 8.53614Z" fill="#ED1E79"/>
<path d="M71.2198 41.1369L76.4883 40.7348L76.2489 35.8682C73.3386 36.0913 71.087 38.451 71.2203 41.1392L71.2198 41.1369Z" fill="#FBC23B"/>
<path d="M29.4701 20.7184C32.7716 20.4654 34.1022 18.6908 33.9971 16.5518C33.8961 14.5253 32.2945 12.9368 29.0991 13.1829C25.9005 13.4272 24.4698 15.2468 24.5683 17.2738C24.6789 19.508 26.253 20.9644 29.4701 20.7184Z" fill="#22B573"/>
<path d="M48.5002 28.3241C48.0867 28.28 47.6326 28.2698 47.1225 28.3094L43.9874 28.5491L43.9932 28.6688L44.3383 35.6299L47.7402 35.3689C50.6504 35.1458 51.7366 33.8096 51.6234 31.5168C51.5428 29.8635 50.6594 28.5584 48.5027 28.3235L48.5002 28.3241Z" fill="#22B573"/>
<path d="M26.0154 30.0435C25.6198 29.9953 25.137 29.9891 24.5527 30.0333L20.1671 30.3676L20.1728 30.4873L20.3218 33.5275L25.0561 33.1657C27.0042 33.016 27.6673 32.302 27.6192 31.3351C27.5869 30.6733 27.1626 30.1798 26.0118 30.0394L26.0154 30.0435Z" fill="#22B573"/>
<path d="M62.9238 18.7337L62.2077 4.23708L6.02004 8.53613C6.18444 11.8568 3.40295 14.7717 -0.191998 15.0469L0.644398 31.9854L9.89089 31.2776L10.607 45.7742L13.7923 45.5305L14.7253 45.4588L71.2198 41.1368C71.0864 38.4486 73.3381 36.0889 76.2483 35.8658L75.3551 17.7799L62.9233 18.7313L62.9238 18.7337ZM55.5574 31.2186C55.7543 35.2134 53.6921 37.6138 47.9929 38.0497L40.5306 38.6203L40.0546 28.9704L39.915 26.1602L46.7823 25.6336C50.8187 25.3245 53.199 26.2468 54.4447 27.8669C55.1523 28.7898 55.4916 29.9372 55.5563 31.2139L55.5574 31.2186ZM31.5483 36.6851L31.6779 39.2977L27.7419 39.5987L27.6123 36.9862C27.548 35.6996 26.9878 35.153 25.3066 35.2815L20.4268 35.6543L20.6498 40.1419L16.7138 40.443L16.2379 30.793L16.0982 27.9828L24.5838 27.3347C28.8926 27.0056 30.6977 27.9526 31.1861 29.6489C31.2645 29.9224 31.3093 30.2134 31.326 30.5232C31.3874 31.7735 30.8744 33.0286 29.0331 33.6824L29.034 33.7217C31.1876 34.0141 31.4817 35.3768 31.5457 36.6857L31.5483 36.6851ZM33.6816 29.4585L33.5419 26.6482L37.4779 26.3471L37.6176 29.1574L38.0935 38.8073L34.1575 39.1084L33.6816 29.4585ZM42.3603 9.6968L46.9509 13.8888L47.0118 13.8848L51.1132 9.02987L55.7047 8.6783L48.7319 16.6438L48.8882 19.8108L48.9818 21.6982L45.0458 21.9993L44.9522 20.1119L44.7959 16.9449L37.1113 10.1018L42.3583 9.69973L42.3603 9.6968ZM20.4242 17.5704C20.2555 14.1248 22.8748 10.958 28.9626 10.4929C35.0505 10.0278 37.9635 12.7696 38.1347 16.2146C38.2186 17.8943 37.716 19.4903 36.4974 20.7529C35.1463 22.1544 32.9095 23.1501 29.6029 23.4042C26.3306 23.6554 23.9833 23.0318 22.4822 21.8254C21.182 20.7807 20.5142 19.3006 20.4267 17.5698L20.4242 17.5704ZM5.01646 20.0983C4.99582 19.7005 4.98446 19.0364 5.01425 18.3876L8.49806 18.1203C8.4872 18.7105 8.52215 19.4309 8.53557 19.7143C8.61126 21.228 9.58623 22.2381 11.7591 22.0718C13.6042 21.9307 14.8857 20.8266 14.7814 18.6675L14.4437 11.8331L18.3797 11.5321L18.7087 18.1981C18.7892 19.839 18.4281 21.1707 17.6721 22.1971C16.6763 23.5523 14.9995 24.3736 12.7602 24.6736C12.5043 24.7071 12.2442 24.7342 11.9749 24.7561C11.0838 24.8231 10.2822 24.8106 9.56493 24.7196C6.63526 24.3496 5.14389 22.7014 5.017 20.1006L5.01646 20.0983ZM70.0171 26.5584L63.3347 27.07L61.2043 27.234L61.2101 27.3537L61.3246 29.6759L68.0889 29.158L68.1929 31.28L61.4286 31.7979L61.5526 34.3154L70.5717 33.6249L70.7051 36.3131L57.75 37.3047L57.274 27.6548L57.1344 24.8446L63.2008 24.3794L69.8832 23.8678L70.0165 26.5561L70.0171 26.5584Z" fill="#22B573"/>
<path d="M17.6715 22.1948C18.425 21.169 18.7886 19.8367 18.7081 18.1958L18.3791 11.5298L14.4431 11.8308L14.7809 18.6652C14.8878 20.8237 13.6036 21.9284 11.7585 22.0695C9.58568 22.2358 8.61071 21.2257 8.53502 19.712C8.5216 19.4286 8.48665 18.7082 8.49751 18.118L5.0137 18.3853C4.98391 19.0341 4.99527 19.6982 5.01591 20.096C5.14536 22.6962 6.63471 24.3473 9.56384 24.7149C10.2811 24.8059 11.0833 24.8208 11.9738 24.7514C12.2437 24.7319 12.5058 24.7019 12.7592 24.6689C14.9984 24.3689 16.6746 23.5453 17.671 22.1925L17.6715 22.1948Z" fill="white"/>
<path d="M29.6034 23.4066C32.9106 23.1548 35.1468 22.1568 36.4979 20.7553C37.7185 19.4897 38.2186 17.8943 38.1352 16.217C37.964 12.7719 35.0505 10.0278 28.9631 10.4952C22.8753 10.9603 20.253 14.1254 20.4247 17.5728C20.5096 19.3041 21.1779 20.7865 22.4802 21.8284C23.9812 23.0348 26.3285 23.6584 29.6008 23.4072L29.6034 23.4066ZM24.5683 17.2738C24.4673 15.2474 25.9005 13.4272 29.0991 13.1829C32.2976 12.9386 33.8991 14.5271 33.9971 16.5517C34.1022 18.6908 32.7716 20.4654 29.4701 20.7184C26.253 20.9644 24.6789 19.5079 24.5683 17.2738Z" fill="white"/>
<path d="M44.9542 20.109L45.0452 21.997L48.9812 21.6959L48.8902 19.8079L48.734 16.6409L55.7041 8.67598L51.1126 9.02755L47.0113 13.8825L46.9509 13.8888L42.3603 9.69683L37.1133 10.0989L44.7979 16.942L44.9542 20.109Z" fill="white"/>
<path d="M24.5863 27.3342L16.1008 27.9823L16.2404 30.7925L16.7163 40.4425L20.6523 40.1414L20.4293 35.6537L25.3092 35.281C26.9904 35.1525 27.5505 35.6991 27.6149 36.9857L27.7444 39.5982L31.6804 39.2971L31.5509 36.6846C31.4874 35.378 31.1927 34.013 29.0391 33.7206L29.0382 33.6813C30.8796 33.0275 31.3925 31.7724 31.3311 30.5221C31.3169 30.2118 31.2696 29.9213 31.1912 29.6478C30.7028 27.9515 28.8972 27.0021 24.5889 27.3336L24.5863 27.3342ZM27.6234 31.3416C27.6709 32.3061 27.0058 33.023 25.0603 33.1721L20.3259 33.534L20.177 30.4938L20.1712 30.3741L24.5569 30.0398C25.1412 29.9956 25.6214 30.0023 26.0196 30.05C27.1698 30.1881 27.5947 30.6839 27.627 31.3457L27.6234 31.3416Z" fill="white"/>
<path d="M33.6815 29.4585L34.16 39.1079L38.0935 38.8073L37.6175 29.1574L37.4779 26.3472L33.5445 26.6477L33.6815 29.4585Z" fill="white"/>
<path d="M46.7853 25.6354L39.9181 26.162L40.0577 28.9722L40.5336 38.6221L47.9959 38.0515C53.6951 37.6156 55.7573 35.2152 55.5605 31.2204C55.4982 29.9432 55.1564 28.7963 54.4488 27.8734C53.2057 26.2527 50.8228 25.331 46.7864 25.6401L46.7853 25.6354ZM51.6239 31.5191C51.7366 33.8096 50.651 35.1482 47.7407 35.3713L44.3388 35.6322L43.9937 28.6711L43.988 28.5514L47.123 28.3117C47.6331 28.2721 48.0872 28.2823 48.5007 28.3264C50.6599 28.5608 51.5408 29.8664 51.6214 31.5197L51.6239 31.5191Z" fill="white"/>
<path d="M61.2037 27.2317L63.3341 27.0676L70.0196 26.5578L69.8862 23.8696L63.2033 24.3788L57.1369 24.844L57.2735 27.6525L57.7519 37.3018L70.7045 36.3108L70.5737 33.622L61.5546 34.3125L61.4305 31.795L68.1949 31.2771L68.0884 29.1556L61.324 29.6735L61.2095 27.3514L61.2037 27.2317Z" fill="white"/>
</g>
<defs>
<clipPath id="clip0_10_208">
<rect width="76" height="48" fill="white" transform="translate(0 0.883789)"/>
</clipPath>
</defs>
</svg>
