<svg width="36" height="47" viewBox="0 0 36 47" fill="none" xmlns="http://www.w3.org/2000/svg">
<path d="M17.9993 0.5C27.6649 0.5 35.5 8.33515 35.5 17.9993C35.5 18.1598 35.4974 18.32 35.4935 18.4819C35.3584 24.0182 32.9221 29.3969 29.6544 34.1133C26.3897 38.8256 22.3221 42.8376 18.9886 45.6306C18.4163 46.1101 17.5837 46.1101 17.0114 45.6306C13.6779 42.8376 9.6103 38.8256 6.34559 34.1133C3.07792 29.3969 0.641634 24.0182 0.506537 18.4819C0.502589 18.32 0.5 18.1598 0.5 17.9993C0.5 8.3351 8.33381 0.5 17.9993 0.5Z" fill="white" stroke="#22B573"/>
<path d="M10.85 26C9.5 26 8.35417 25.525 7.4125 24.575C6.47083 23.625 6 22.475 6 21.125C6 19.775 6.475 18.6292 7.425 17.6875C8.375 16.7458 9.525 16.275 10.875 16.275C12.0583 16.275 13.0958 16.6542 13.9875 17.4125C14.8792 18.1708 15.4167 19.1333 15.6 20.3H16.875L14.825 14.5H13V13H17.7V14.5H16.4L17.05 16.275H22.6L20.825 11.5H18.2V10H20.675C21.075 10 21.4125 10.0917 21.6875 10.275C21.9625 10.4583 22.1667 10.7333 22.3 11.1L24.2 16.275H25.15C26.5 16.275 27.6458 16.7417 28.5875 17.675C29.5292 18.6083 30 19.7417 30 21.075C30 22.425 29.5292 23.5833 28.5875 24.55C27.6458 25.5167 26.5 26 25.15 26C23.95 26 22.9 25.6 22 24.8C21.1 24 20.55 23 20.35 21.8H15.6C15.4167 23 14.8792 24 13.9875 24.8C13.0958 25.6 12.05 26 10.85 26ZM10.85 24.5C11.65 24.5 12.3458 24.2417 12.9375 23.725C13.5292 23.2083 13.925 22.5667 14.125 21.8H11.15V20.3H14.125C13.925 19.55 13.525 18.9417 12.925 18.475C12.325 18.0083 11.6417 17.775 10.875 17.775C9.94167 17.775 9.14583 18.1 8.4875 18.75C7.82917 19.4 7.5 20.1917 7.5 21.125C7.5 22.0583 7.825 22.8542 8.475 23.5125C9.125 24.1708 9.91667 24.5 10.85 24.5ZM18.475 20.3H20.375C20.4417 19.9167 20.5708 19.4917 20.7625 19.025C20.9542 18.5583 21.2167 18.1417 21.55 17.775H17.575L18.475 20.3ZM25.15 24.5C26.0833 24.5 26.875 24.1708 27.525 23.5125C28.175 22.8542 28.5 22.0583 28.5 21.125C28.5 20.1917 28.175 19.4 27.525 18.75C26.875 18.1 26.0833 17.775 25.15 17.775H24.75L25.725 20.6L24.325 21.075L23.25 18.275C22.7667 18.5583 22.4042 18.9583 22.1625 19.475C21.9208 19.9917 21.8 20.5417 21.8 21.125C21.8 22.0583 22.125 22.8542 22.775 23.5125C23.425 24.1708 24.2167 24.5 25.15 24.5Z" fill="#22B573"/>
</svg>
