<svg width="24" height="24" viewBox="0 0 24 24" fill="none" xmlns="http://www.w3.org/2000/svg">
<path d="M4.85 20C3.5 20 2.35417 19.525 1.4125 18.575C0.470833 17.625 0 16.475 0 15.125C0 13.775 0.475 12.6292 1.425 11.6875C2.375 10.7458 3.525 10.275 4.875 10.275C6.05833 10.275 7.09583 10.6542 7.9875 11.4125C8.87917 12.1708 9.41667 13.1333 9.6 14.3H10.875L8.825 8.5H7V7H11.7V8.5H10.4L11.05 10.275H16.6L14.825 5.5H12.2V4H14.675C15.075 4 15.4125 4.09167 15.6875 4.275C15.9625 4.45833 16.1667 4.73333 16.3 5.1L18.2 10.275H19.15C20.5 10.275 21.6458 10.7417 22.5875 11.675C23.5292 12.6083 24 13.7417 24 15.075C24 16.425 23.5292 17.5833 22.5875 18.55C21.6458 19.5167 20.5 20 19.15 20C17.95 20 16.9 19.6 16 18.8C15.1 18 14.55 17 14.35 15.8H9.6C9.41667 17 8.87917 18 7.9875 18.8C7.09583 19.6 6.05 20 4.85 20ZM4.85 18.5C5.65 18.5 6.34583 18.2417 6.9375 17.725C7.52917 17.2083 7.925 16.5667 8.125 15.8H5.15V14.3H8.125C7.925 13.55 7.525 12.9417 6.925 12.475C6.325 12.0083 5.64167 11.775 4.875 11.775C3.94167 11.775 3.14583 12.1 2.4875 12.75C1.82917 13.4 1.5 14.1917 1.5 15.125C1.5 16.0583 1.825 16.8542 2.475 17.5125C3.125 18.1708 3.91667 18.5 4.85 18.5ZM12.475 14.3H14.375C14.4417 13.9167 14.5708 13.4917 14.7625 13.025C14.9542 12.5583 15.2167 12.1417 15.55 11.775H11.575L12.475 14.3ZM19.15 18.5C20.0833 18.5 20.875 18.1708 21.525 17.5125C22.175 16.8542 22.5 16.0583 22.5 15.125C22.5 14.1917 22.175 13.4 21.525 12.75C20.875 12.1 20.0833 11.775 19.15 11.775H18.75L19.725 14.6L18.325 15.075L17.25 12.275C16.7667 12.5583 16.4042 12.9583 16.1625 13.475C15.9208 13.9917 15.8 14.5417 15.8 15.125C15.8 16.0583 16.125 16.8542 16.775 17.5125C17.425 18.1708 18.2167 18.5 19.15 18.5Z" fill="#22B573"/>
</svg>
