<svg width="36" height="47" viewBox="0 0 36 47" fill="none" xmlns="http://www.w3.org/2000/svg">
<path d="M17.9993 0.5C27.6649 0.5 35.5 8.33515 35.5 17.9993C35.5 18.1598 35.4974 18.32 35.4935 18.4819C35.3584 24.0182 32.9221 29.3969 29.6544 34.1133C26.3897 38.8256 22.3221 42.8376 18.9886 45.6306C18.4163 46.1101 17.5837 46.1101 17.0114 45.6306C13.6779 42.8376 9.6103 38.8256 6.34559 34.1133C3.07792 29.3969 0.641634 24.0182 0.506537 18.4819C0.502589 18.32 0.5 18.1598 0.5 17.9993C0.5 8.3351 8.33381 0.5 17.9993 0.5Z" fill="white" stroke="#F95555"/>
<path d="M23.5 32V24H20.625V16.375C20.625 15.0583 21.025 14 21.825 13.2C22.625 12.4 23.6833 12 25 12V32H23.5ZM13.125 32V22.8C12.2583 22.6167 11.5208 22.1792 10.9125 21.4875C10.3042 20.7958 10 19.9667 10 19V12H11.5V19H13.125V12H14.625V19H16.25V12H17.75V19C17.75 19.9667 17.4458 20.7958 16.8375 21.4875C16.2292 22.1792 15.4917 22.6167 14.625 22.8V32H13.125Z" fill="#F95555"/>
</svg>
