<svg width="36" height="47" viewBox="0 0 36 47" fill="none" xmlns="http://www.w3.org/2000/svg">
<path d="M17.9993 0.5C27.6649 0.5 35.5 8.33515 35.5 17.9993C35.5 18.1598 35.4974 18.32 35.4935 18.4819C35.3584 24.0182 32.9221 29.3969 29.6544 34.1133C26.3897 38.8256 22.3221 42.8376 18.9886 45.6306C18.4163 46.1101 17.5837 46.1101 17.0114 45.6306C13.6779 42.8376 9.6103 38.8256 6.34559 34.1133C3.07792 29.3969 0.641634 24.0182 0.506537 18.4819C0.502589 18.32 0.5 18.1598 0.5 17.9993C0.5 8.3351 8.33381 0.5 17.9993 0.5Z" fill="white" stroke="#9E9E9E"/>
<path d="M24.1549 29.6957L17.018 22.5035C16.5938 22.651 16.1697 22.7709 15.7455 22.8631C15.3213 22.9553 14.888 23.0014 14.4454 23.0014C12.6565 23.0014 11.1351 22.379 9.88105 21.1342C8.62702 19.8893 8 18.3725 8 16.5837C8 16.012 8.07377 15.4541 8.2213 14.9101C8.36883 14.3661 8.58091 13.8543 8.85754 13.3748L12.8686 17.3859L15.4136 15.0069L11.2918 10.8852C11.7713 10.6086 12.2785 10.3919 12.8133 10.2351C13.3481 10.0784 13.8921 10 14.4454 10C16.2711 10 17.8248 10.6408 19.1065 11.9225C20.3882 13.2042 21.029 14.758 21.029 16.5837C21.029 17.0263 20.9829 17.4597 20.8907 17.8838C20.7985 18.308 20.6787 18.7321 20.5311 19.1563L27.6957 26.2932C27.8986 26.4961 28 26.7404 28 27.0263C28 27.3121 27.8986 27.5565 27.6957 27.7593L25.5934 29.6957C25.3905 29.8986 25.1508 30 24.8741 30C24.5975 30 24.3578 29.8986 24.1549 29.6957V29.6957ZM24.9295 28.1189L26.036 27.0124L18.4841 19.4606C18.7792 19.0733 19.0005 18.6169 19.148 18.0913C19.2955 17.5657 19.3693 17.0632 19.3693 16.5837C19.3693 15.2006 18.8575 14.0295 17.834 13.0705C16.8105 12.1116 15.6441 11.6229 14.3347 11.6044L17.1286 14.4537C17.2946 14.6196 17.3776 14.8225 17.3776 15.0622C17.3776 15.302 17.2946 15.5048 17.1286 15.6708L13.4772 19.101C13.3112 19.2669 13.1083 19.3499 12.8686 19.3499C12.6289 19.3499 12.426 19.2669 12.26 19.101L9.57676 16.4454C9.63209 17.8654 10.1346 19.0364 11.0844 19.9585C12.0341 20.8806 13.1544 21.3416 14.4454 21.3416C14.9064 21.3416 15.3951 21.2679 15.9115 21.1203C16.4278 20.9728 16.8797 20.7515 17.2669 20.4564L24.9295 28.1189Z" fill="#757575"/>
</svg>
