<svg width="24" height="24" viewBox="0 0 24 24" fill="none" xmlns="http://www.w3.org/2000/svg">
<path d="M17.6249 20.8L11.1749 14.3C10.7916 14.4333 10.4082 14.5417 10.0249 14.625C9.64157 14.7083 9.2499 14.75 8.8499 14.75C7.23324 14.75 5.85824 14.1875 4.7249 13.0625C3.59157 11.9375 3.0249 10.5667 3.0249 8.95C3.0249 8.43333 3.09157 7.92917 3.2249 7.4375C3.35824 6.94583 3.5499 6.48333 3.7999 6.05L7.4249 9.675L9.7249 7.525L5.9999 3.8C6.43324 3.55 6.89157 3.35417 7.3749 3.2125C7.85824 3.07083 8.3499 3 8.8499 3C10.4999 3 11.9041 3.57917 13.0624 4.7375C14.2207 5.89583 14.7999 7.3 14.7999 8.95C14.7999 9.35 14.7582 9.74167 14.6749 10.125C14.5916 10.5083 14.4832 10.8917 14.3499 11.275L20.8249 17.725C21.0082 17.9083 21.0999 18.1292 21.0999 18.3875C21.0999 18.6458 21.0082 18.8667 20.8249 19.05L18.9249 20.8C18.7416 20.9833 18.5249 21.075 18.2749 21.075C18.0249 21.075 17.8082 20.9833 17.6249 20.8ZM18.3249 19.375L19.3249 18.375L12.4999 11.55C12.7666 11.2 12.9666 10.7875 13.0999 10.3125C13.2332 9.8375 13.2999 9.38333 13.2999 8.95C13.2999 7.7 12.8374 6.64167 11.9124 5.775C10.9874 4.90833 9.93324 4.46667 8.7499 4.45L11.2749 7.025C11.4249 7.175 11.4999 7.35833 11.4999 7.575C11.4999 7.79167 11.4249 7.975 11.2749 8.125L7.9749 11.225C7.8249 11.375 7.64157 11.45 7.4249 11.45C7.20824 11.45 7.0249 11.375 6.8749 11.225L4.4499 8.825C4.4999 10.1083 4.95407 11.1667 5.8124 12C6.67074 12.8333 7.68324 13.25 8.8499 13.25C9.26657 13.25 9.70824 13.1833 10.1749 13.05C10.6416 12.9167 11.0499 12.7167 11.3999 12.45L18.3249 19.375Z" fill="#757575"/>
</svg>
