<svg width="24" height="24" viewBox="0 0 24 24" fill="none" xmlns="http://www.w3.org/2000/svg">
<path d="M5.30005 22V14.5H4.05005V8.8C4.05005 8.31667 4.22922 7.89583 4.58755 7.5375C4.94588 7.17917 5.36672 7 5.85005 7H8.45005C8.93338 7 9.35422 7.17917 9.71255 7.5375C10.0709 7.89583 10.25 8.31667 10.25 8.8V14.5H9.00005V22H5.30005ZM15.75 22V16H13.15L15.3 8.225C15.4167 7.825 15.6375 7.52083 15.9625 7.3125C16.2875 7.10417 16.6667 7 17.1 7C17.5334 7 17.9125 7.10417 18.2375 7.3125C18.5625 7.52083 18.7834 7.825 18.9 8.225L21.05 16H18.45V22H15.75ZM7.15005 5.65C6.65005 5.65 6.22088 5.47083 5.86255 5.1125C5.50422 4.75417 5.32505 4.325 5.32505 3.825C5.32505 3.325 5.50422 2.89583 5.86255 2.5375C6.22088 2.17917 6.65005 2 7.15005 2C7.65005 2 8.07922 2.17917 8.43755 2.5375C8.79588 2.89583 8.97505 3.325 8.97505 3.825C8.97505 4.325 8.79588 4.75417 8.43755 5.1125C8.07922 5.47083 7.65005 5.65 7.15005 5.65ZM17.1 5.65C16.6 5.65 16.1709 5.47083 15.8125 5.1125C15.4542 4.75417 15.275 4.325 15.275 3.825C15.275 3.325 15.4542 2.89583 15.8125 2.5375C16.1709 2.17917 16.6 2 17.1 2C17.6 2 18.0292 2.17917 18.3875 2.5375C18.7459 2.89583 18.925 3.325 18.925 3.825C18.925 4.325 18.7459 4.75417 18.3875 5.1125C18.0292 5.47083 17.6 5.65 17.1 5.65Z" fill="#088EB9"/>
</svg>
