<svg width="36" height="47" viewBox="0 0 36 47" fill="none" xmlns="http://www.w3.org/2000/svg">
<path d="M17.9993 0.5C27.6649 0.5 35.5 8.33515 35.5 17.9993C35.5 18.1598 35.4974 18.32 35.4935 18.4819C35.3584 24.0182 32.9221 29.3969 29.6544 34.1133C26.3897 38.8256 22.3221 42.8376 18.9886 45.6306C18.4163 46.1101 17.5837 46.1101 17.0114 45.6306C13.6779 42.8376 9.6103 38.8256 6.34559 34.1133C3.07792 29.3969 0.641634 24.0182 0.506537 18.4819C0.502589 18.32 0.5 18.1598 0.5 17.9993C0.5 8.3351 8.33381 0.5 17.9993 0.5Z" fill="white" stroke="#088EB9"/>
<path d="M10.3235 30V22.5H9V16.8C9 16.3167 9.18971 15.8958 9.56912 15.5375C9.94853 15.1792 10.3941 15 10.9059 15H13.6588C14.1706 15 14.6162 15.1792 14.9956 15.5375C15.375 15.8958 15.5647 16.3167 15.5647 16.8V22.5H14.2412V30H10.3235ZM21.3882 30V24H18.6353L20.9118 16.225C21.0353 15.825 21.2691 15.5208 21.6132 15.3125C21.9574 15.1042 22.3588 15 22.8176 15C23.2765 15 23.6779 15.1042 24.0221 15.3125C24.3662 15.5208 24.6 15.825 24.7235 16.225L27 24H24.2471V30H21.3882ZM12.2824 13.65C11.7529 13.65 11.2985 13.4708 10.9191 13.1125C10.5397 12.7542 10.35 12.325 10.35 11.825C10.35 11.325 10.5397 10.8958 10.9191 10.5375C11.2985 10.1792 11.7529 10 12.2824 10C12.8118 10 13.2662 10.1792 13.6456 10.5375C14.025 10.8958 14.2147 11.325 14.2147 11.825C14.2147 12.325 14.025 12.7542 13.6456 13.1125C13.2662 13.4708 12.8118 13.65 12.2824 13.65ZM22.8176 13.65C22.2882 13.65 21.8338 13.4708 21.4544 13.1125C21.075 12.7542 20.8853 12.325 20.8853 11.825C20.8853 11.325 21.075 10.8958 21.4544 10.5375C21.8338 10.1792 22.2882 10 22.8176 10C23.3471 10 23.8015 10.1792 24.1809 10.5375C24.5603 10.8958 24.75 11.325 24.75 11.825C24.75 12.325 24.5603 12.7542 24.1809 13.1125C23.8015 13.4708 23.3471 13.65 22.8176 13.65Z" fill="#088EB9"/>
</svg>
