<svg width="40" height="40" viewBox="0 0 40 40" fill="none" xmlns="http://www.w3.org/2000/svg">
<g filter="url(#filter0_d_1006_1373)">
<circle cx="20" cy="18" r="16" fill="white"/>
<circle cx="20" cy="18" r="15.5" stroke="#EF00B3"/>
</g>
<path d="M19.8293 9C20.7683 9 21.5366 9.765 21.5366 10.7C21.5366 11.635 20.7683 12.4 19.8293 12.4C18.8902 12.4 18.122 11.635 18.122 10.7C18.122 9.765 18.8902 9 19.8293 9ZM23.1585 14.185C22.8171 13.845 22.2195 13.25 21.1098 13.25H18.9756C16.5854 13.25 14.7073 11.38 14.7073 9H13C13 11.72 14.7927 13.93 17.2683 14.695V26H18.9756V20.9H20.6829V26H22.3902V15.885L25.8049 19.2L27 18.01L23.1585 14.185V14.185Z" fill="#EF00B3"/>
<defs>
<filter id="filter0_d_1006_1373" x="0" y="0" width="40" height="40" filterUnits="userSpaceOnUse" color-interpolation-filters="sRGB">
<feFlood flood-opacity="0" result="BackgroundImageFix"/>
<feColorMatrix in="SourceAlpha" type="matrix" values="0 0 0 0 0 0 0 0 0 0 0 0 0 0 0 0 0 0 127 0" result="hardAlpha"/>
<feOffset dy="2"/>
<feGaussianBlur stdDeviation="2"/>
<feComposite in2="hardAlpha" operator="out"/>
<feColorMatrix type="matrix" values="0 0 0 0 0 0 0 0 0 0 0 0 0 0 0 0 0 0 0.25 0"/>
<feBlend mode="normal" in2="BackgroundImageFix" result="effect1_dropShadow_1006_1373"/>
<feBlend mode="normal" in="SourceGraphic" in2="effect1_dropShadow_1006_1373" result="shape"/>
</filter>
</defs>
</svg>
