<svg width="40" height="40" viewBox="0 0 40 40" fill="none" xmlns="http://www.w3.org/2000/svg">
<g filter="url(#filter0_d_1043_1343)">
<circle cx="20" cy="18" r="16" fill="white"/>
<circle cx="20" cy="18" r="15.5" stroke="#22B573"/>
</g>
<path d="M13.5663 15.2522C14.1178 15.2522 14.5649 14.8051 14.5649 14.2535C14.5649 13.702 14.1178 13.2549 13.5663 13.2549C13.0147 13.2549 12.5676 13.702 12.5676 14.2535C12.5676 14.8051 13.0147 15.2522 13.5663 15.2522Z" fill="#22B573"/>
<path d="M22.1326 11.5885C23.2463 11.5885 24.149 10.6857 24.149 9.57207C24.149 8.45844 23.2463 7.55566 22.1326 7.55566C21.019 7.55566 20.1162 8.45844 20.1162 9.57207C20.1162 10.6857 21.019 11.5885 22.1326 11.5885Z" fill="#22B573"/>
<path d="M17.9737 11.4737C18.6684 11.4737 19.2316 10.9106 19.2316 10.2159C19.2316 9.52118 18.6684 8.95801 17.9737 8.95801C17.279 8.95801 16.7158 9.52118 16.7158 10.2159C16.7158 10.9106 17.279 11.4737 17.9737 11.4737Z" fill="#22B573"/>
<path d="M23.7676 23.0298C23.4576 22.5323 23.2837 21.9622 23.2631 21.3764C23.2425 20.7907 23.376 20.2098 23.6503 19.6918L23.6425 19.6801C24.1588 18.9069 24.4339 17.9979 24.4327 17.0682C24.4327 14.4632 22.3209 12.3516 19.7161 12.3516C17.1111 12.3516 14.9995 14.4632 14.9995 17.0682C14.9995 17.5769 15.0823 18.0659 15.2316 18.5252C15.3304 18.9314 15.4908 19.3201 15.7072 19.6778L15.6851 19.6904L19.1016 25.6081C19.4622 26.6753 20.4694 27.4444 21.658 27.4444C23.1493 27.4444 24.3589 26.2355 24.3589 24.744C24.3589 24.097 24.1307 23.5033 23.751 23.0383L23.7676 23.0298V23.0298Z" fill="#22B573"/>
<path d="M15.317 13.1379C15.8686 13.1379 16.3157 12.6908 16.3157 12.1393C16.3157 11.5877 15.8686 11.1406 15.317 11.1406C14.7655 11.1406 14.3184 11.5877 14.3184 12.1393C14.3184 12.6908 14.7655 13.1379 15.317 13.1379Z" fill="#22B573"/>
<defs>
<filter id="filter0_d_1043_1343" x="0" y="0" width="40" height="40" filterUnits="userSpaceOnUse" color-interpolation-filters="sRGB">
<feFlood flood-opacity="0" result="BackgroundImageFix"/>
<feColorMatrix in="SourceAlpha" type="matrix" values="0 0 0 0 0 0 0 0 0 0 0 0 0 0 0 0 0 0 127 0" result="hardAlpha"/>
<feOffset dy="2"/>
<feGaussianBlur stdDeviation="2"/>
<feComposite in2="hardAlpha" operator="out"/>
<feColorMatrix type="matrix" values="0 0 0 0 0 0 0 0 0 0 0 0 0 0 0 0 0 0 0.25 0"/>
<feBlend mode="normal" in2="BackgroundImageFix" result="effect1_dropShadow_1043_1343"/>
<feBlend mode="normal" in="SourceGraphic" in2="effect1_dropShadow_1043_1343" result="shape"/>
</filter>
</defs>
</svg>
