<svg width="40" height="40" viewBox="0 0 40 40" fill="none" xmlns="http://www.w3.org/2000/svg">
<g filter="url(#filter0_d_1043_1344)">
<circle cx="20" cy="18" r="16" fill="white"/>
<circle cx="20" cy="18" r="15.5" stroke="#EF00B3"/>
</g>
<path d="M15.4253 12C15.4253 13.1031 14.5117 14 13.388 14C12.2643 14 11.3507 13.1031 11.3507 12C11.3507 10.8969 12.2643 10 13.388 10C14.5117 10 15.4253 10.8969 15.4253 12ZM10.1378 17.2937C10.246 15.9969 11.3507 15 12.6749 15H14.1011C14.9606 15 15.7246 15.4188 16.1861 16.0656C16.1002 16.125 16.0206 16.1906 15.9474 16.2625L13.9101 18.2625C13.2129 18.9469 13.2129 20.0531 13.9101 20.7375L15.4253 22.225V24.5C15.4253 25.3281 14.7409 26 13.8973 26H12.8787C12.0351 26 11.3507 25.3281 11.3507 24.5V20.8844C10.5071 20.5875 9.92771 19.7656 10.0073 18.8344L10.1378 17.2937ZM27.6493 12C27.6493 13.1031 26.7357 14 25.612 14C24.4883 14 23.5747 13.1031 23.5747 12C23.5747 10.8969 24.4883 10 25.612 10C26.7357 10 27.6493 10.8969 27.6493 12ZM23.0526 16.2625C22.9794 16.1906 22.8966 16.125 22.8139 16.0656C23.2754 15.4188 24.0426 15 24.8989 15H26.3251C27.6493 15 28.754 15.9969 28.8622 17.2937L28.9927 18.8344C29.0723 19.7656 28.4929 20.5875 27.6493 20.8844V24.5C27.6493 25.3281 26.9649 26 26.1213 26H25.1027C24.2591 26 23.5747 25.3281 23.5747 24.5V22.225L25.0899 20.7375C25.7871 20.0531 25.7871 18.9469 25.0899 18.2625L23.0526 16.2625ZM17.972 17.5V18.5H21.028V17.5C21.028 17.1969 21.2126 16.9219 21.4991 16.8063C21.7856 16.6906 22.1135 16.7531 22.3332 16.9688L24.3705 18.9688C24.6697 19.2625 24.6697 19.7375 24.3705 20.0281L22.3332 22.0281C22.1135 22.2437 21.7856 22.3063 21.4991 22.1906C21.2126 22.075 21.028 21.8 21.028 21.4969V20.5H17.972V21.5C17.972 21.8031 17.7874 22.0781 17.5009 22.1938C17.2144 22.3094 16.8865 22.2469 16.6668 22.0312L14.6295 20.0312C14.3303 19.7375 14.3303 19.2625 14.6295 18.9719L16.6668 16.9719C16.8865 16.7563 17.2144 16.6937 17.5009 16.8094C17.7874 16.925 17.972 17.2 17.972 17.5031V17.5Z" fill="#EF00B3"/>
<defs>
<filter id="filter0_d_1043_1344" x="0" y="0" width="40" height="40" filterUnits="userSpaceOnUse" color-interpolation-filters="sRGB">
<feFlood flood-opacity="0" result="BackgroundImageFix"/>
<feColorMatrix in="SourceAlpha" type="matrix" values="0 0 0 0 0 0 0 0 0 0 0 0 0 0 0 0 0 0 127 0" result="hardAlpha"/>
<feOffset dy="2"/>
<feGaussianBlur stdDeviation="2"/>
<feComposite in2="hardAlpha" operator="out"/>
<feColorMatrix type="matrix" values="0 0 0 0 0 0 0 0 0 0 0 0 0 0 0 0 0 0 0.25 0"/>
<feBlend mode="normal" in2="BackgroundImageFix" result="effect1_dropShadow_1043_1344"/>
<feBlend mode="normal" in="SourceGraphic" in2="effect1_dropShadow_1043_1344" result="shape"/>
</filter>
</defs>
</svg>
